# xmcd
#
# Track frame offsets:
#	150
#	15688
#	32757
#	50068
#	71390
#	87079
#	107452
#	126336
#	139831
#	160199
#	181781
#
# Disc length: 2654 seconds
# Revision: 0
# Processed by: cddbd v1.5.2PL0 Copyright (c) Steve Scherf et al.
# Submitted via: dBpowerAMP V12.0
#
DISCID=8b0a5c0b
DTITLE=Annie Keating - Make Believing
DYEAR=2015
DGENRE=Americana
TTITLE0=Coney Island
TTITLE1=Sunny Dirt Road
TTITLE2=I Want To Believe
TTITLE3=Foxes
TTITLE4=Sink or Swim
TTITLE5=Just Up Ahead
TTITLE6=Know How To Fall
TTITLE7=One Good Morning
TTITLE8=Lost Girls
TTITLE9=Still Broken
TTITLE10=If You Want To Fly
EXTD=
EXTT0=
EXTT1=
EXTT2=
EXTT3=
EXTT4=
EXTT5=
EXTT6=
EXTT7=
EXTT8=
EXTT9=
EXTT10=
PLAYORDER=
